HIERARCHY
ROOT Hips
{
	OFFSET 0.00000 0.00000 0.00000
	CHANNELS 6 Xposition Yposition Zposition Zrotation Yrotation Xrotation 
	JOINT LHipJoint
	{
		OFFSET 0 0 0
		CHANNELS 3 Zrotation Yrotation Xrotation
		JOINT LeftUpLeg
		{
			OFFSET 1.53927 -1.56553 0.51726
			CHANNELS 3 Zrotation Yrotation Xrotation
			JOINT LeftLeg
			{
				OFFSET 2.38199 -6.54447 0.00000
				CHANNELS 3 Zrotation Yrotation Xrotation
				JOINT LeftFoot
				{
					OFFSET 2.35499 -6.47028 0.00000
					CHANNELS 3 Zrotation Yrotation Xrotation
					JOINT LeftToeBase
					{
						OFFSET 0.13641 -0.37478 1.84251
						CHANNELS 3 Zrotation Yrotation Xrotation
						End Site
						{
							OFFSET 0.00000 -0.00000 0.95212
						}
					}
				}
			}
		}
	}
	JOINT RHipJoint
	{
		OFFSET 0 0 0
		CHANNELS 3 Zrotation Yrotation Xrotation
		JOINT RightUpLeg
		{
			OFFSET -1.43919 -1.56553 0.51726
			CHANNELS 3 Zrotation Yrotation Xrotation
			JOINT RightLeg
			{
				OFFSET -2.34860 -6.45274 0.00000
				CHANNELS 3 Zrotation Yrotation Xrotation
				JOINT RightFoot
				{
					OFFSET -2.25563 -6.19730 0.00000
					CHANNELS 3 Zrotation Yrotation Xrotation
					JOINT RightToeBase
					{
						OFFSET -0.19755 -0.54277 1.84912
						CHANNELS 3 Zrotation Yrotation Xrotation
						End Site
						{
							OFFSET -0.00000 -0.00000 0.97032
						}
					}
				}
			}
		}
	}
	JOINT LowerBack
	{
		OFFSET 0 0 0
		CHANNELS 3 Zrotation Yrotation Xrotation
		JOINT Spine
		{
			OFFSET -0.06402 1.88434 -0.00445
			CHANNELS 3 Zrotation Yrotation Xrotation
			JOINT Spine1
			{
				OFFSET 0.00756 1.88511 0.04237
				CHANNELS 3 Zrotation Yrotation Xrotation
				JOINT Neck
				{
					OFFSET 0 0 0
					CHANNELS 3 Zrotation Yrotation Xrotation
					JOINT Neck1
					{
						OFFSET -0.06230 1.34710 0.03308
						CHANNELS 3 Zrotation Yrotation Xrotation
						JOINT Head
						{
							OFFSET -0.02442 1.34501 -0.13654
							CHANNELS 3 Zrotation Yrotation Xrotation
							End Site
							{
								OFFSET -0.00508 1.35584 -0.05075
							}
						}
					}
				}
				JOINT LeftShoulder
				{
					OFFSET 0 0 0
					CHANNELS 3 Zrotation Yrotation Xrotation
					JOINT LeftArm
					{
						OFFSET 2.76911 0.54460 0.39412
						CHANNELS 3 Zrotation Yrotation Xrotation
						JOINT LeftForeArm
						{
							OFFSET 4.40919 -0.00000 -0.00000
							CHANNELS 3 Zrotation Yrotation Xrotation
							JOINT LeftHand
							{
								OFFSET 3.03857 -0.00000 -0.00000
								CHANNELS 3 Zrotation Yrotation Xrotation
								JOINT LeftFingerBase
								{
									OFFSET 0 0 0
									CHANNELS 3 Zrotation Yrotation Xrotation
									JOINT LeftHandIndex1
									{
										OFFSET 0.52321 -0.00000 -0.00000
										CHANNELS 3 Zrotation Yrotation Xrotation
										End Site
										{
											OFFSET 0.42182 -0.00000 -0.00000
										}
									}
								}
								JOINT LThumb
								{
									OFFSET 0 0 0
									CHANNELS 3 Zrotation Yrotation Xrotation
									End Site
									{
										OFFSET 0.42826 -0.00000 0.42826
									}
								}
							}
						}
					}
				}
				JOINT RightShoulder
				{
					OFFSET 0 0 0
					CHANNELS 3 Zrotation Yrotation Xrotation
					JOINT RightArm
					{
						OFFSET -2.99050 0.75949 0.48975
						CHANNELS 3 Zrotation Yrotation Xrotation
						JOINT RightForeArm
						{
							OFFSET -4.61969 -0.00000 -0.00000
							CHANNELS 3 Zrotation Yrotation Xrotation
							JOINT RightHand
							{
								OFFSET -3.09382 -0.00000 -0.00000
								CHANNELS 3 Zrotation Yrotation Xrotation
								JOINT RightFingerBase
								{
									OFFSET 0 0 0
									CHANNELS 3 Zrotation Yrotation Xrotation
									JOINT RightHandIndex1
									{
										OFFSET -0.50090 -0.00000 -0.00000
										CHANNELS 3 Zrotation Yrotation Xrotation
										End Site
										{
											OFFSET -0.40384 -0.00000 -0.00000
										}
									}
								}
								JOINT RThumb
								{
									OFFSET 0 0 0
									CHANNELS 3 Zrotation Yrotation Xrotation
									End Site
									{
										OFFSET -0.41000 -0.00000 0.41000
									}
								}
							}
						}
					}
				}
			}
		}
	}
}
MOTION
Frames: 10
Frame Time: .0083333
7.5897 16.3721 -1.2712 0 0 0 0 0 0 -21 0 0 0 0 0 0 0 0 0 0 0 0 0 0 21 0 0 0 0 0 0 0 0 0 0 0 0 0 0 0 0 0 0 0 0 0 0 -16 0 0 21 0 0 11 0 0 0 -8 0 0 0 0 0 0 0 0 0 0 0 0 0 0 0 0 0 0 0 0 8 0 0 0 0 0 0 0 0 0 0 0 0 0 0 0 0 0
7.5897 16.3721 -1.2712 141.7030 -87.0507 -133.8990 0.0000 0.0000 0.0000 -20.7385 -13.0838 3.0874 0.2289 3.0797 8.5007 -0.8546 19.1855 -18.3594 1.2184 7.0014 19.7196 0.0000 0.0000 0.0000 18.1540 17.4146 -2.0457 -0.5608 -4.7965 13.3291 -0.3337 -9.5151 -18.2034 -0.3987 -4.0542 11.2291 -1.6902 0.2855 -6.5967 0.3539 0.2718 -5.7336 1.3271 0.1176 -2.2315 5.7065 8.2418 2.0436 -10.6402 11.9054 12.9385 -3.7459 5.5399 4.5081 -0.0000 0.0000 0.0000 -93.9416 17.0380 13.8214 16.8651 -26.6796 -4.0266 -0.0000 -0.0000 21.5465 21.3953 -10.7503 -4.1799 -7.1250 0.0000 -0.0000 -4.0027 18.4705 2.5346 -0.0000 0.0000 0.0000 89.2539 -13.1870 7.3447 -14.6901 23.7126 -3.1002 0.0000 0.0000 8.3341 -15.9322 -45.0019 11.4124 7.1250 -0.0000 -0.0000 38.3481 -73.0333 -26.5058
7.5787 16.3715 -1.2904 144.0680 -87.0383 -136.1370 0.0000 0.0000 0.0000 -20.5592 -13.0141 2.9898 0.2258 3.0586 8.4421 -0.8447 19.1700 -18.4658 1.2959 7.2126 20.3466 0.0000 0.0000 0.0000 18.2592 17.4698 -2.1983 -0.5598 -4.7922 13.3169 -0.3444 -9.3480 -18.1520 -0.4170 -4.1450 11.4850 -1.6141 0.3778 -6.6760 0.3734 0.3831 -5.8829 1.3097 0.1696 -2.3465 5.7405 8.2562 2.5956 -10.6956 11.9138 12.6297 -3.7967 5.5698 4.3281 0.0000 -0.0000 0.0000 -93.9769 17.3507 13.7352 16.9290 -26.7640 -4.0553 -0.0000 -0.0000 21.4369 20.9608 -10.2531 -3.9008 -7.1250 0.0000 -0.0000 -4.2980 19.0340 2.6688 0.0000 -0.0000 0.0000 89.2502 -13.4555 7.5444 -14.7573 23.8069 -3.1273 0.0000 0.0000 8.2485 -16.1511 -45.3503 11.6416 7.1250 -0.0000 -0.0000 38.9737 -73.3593 -27.2298
7.5691 16.3686 -1.3076 140.2830 -87.2772 -132.4410 0.0000 0.0000 0.0000 -20.4668 -13.2531 3.2039 0.2215 3.0293 8.3604 -0.8902 19.3615 -18.2518 1.2599 7.1155 20.0581 0.0000 0.0000 0.0000 18.3905 17.2402 -2.1212 -0.5643 -4.8111 13.3706 -0.3589 -9.3660 -18.3404 -0.4218 -4.1684 11.5510 -1.5608 0.3497 -6.4935 0.3639 0.3392 -5.9518 1.2672 0.1472 -2.5173 5.8415 8.3114 2.7065 -10.7855 12.0015 12.6524 -3.8401 5.6156 4.3354 -0.0000 -0.0000 0.0000 -94.0560 17.5594 13.4754 16.9475 -26.7885 -4.0636 -0.0000 -0.0000 21.4347 20.2685 -9.9393 -3.6471 -7.1250 0.0000 -0.0000 -4.7842 19.4183 2.9317 -0.0000 -0.0000 0.0000 89.2226 -13.5933 7.7051 -14.7344 23.7748 -3.1181 0.0000 0.0000 8.1202 -16.0354 -46.0784 11.6962 7.1250 -0.0000 -0.0000 40.9692 -73.8185 -29.1156
7.5655 16.3662 -1.3246 133.9140 -87.4899 -126.1030 0.0000 0.0000 0.0000 -20.4165 -13.5917 3.3192 0.2203 3.0212 8.3377 -0.9193 19.4407 -18.0087 1.1601 6.8380 19.2363 0.0000 0.0000 0.0000 18.4391 16.9947 -2.0731 -0.5630 -4.8058 13.3556 -0.3552 -9.4760 -18.4124 -0.4166 -4.1429 11.4791 -1.5715 0.2894 -6.4361 0.3261 0.2634 -5.8834 1.2309 0.1101 -2.4750 5.9206 8.4406 2.3990 -10.7650 12.1888 12.8431 -3.8185 5.6976 4.4652 0.0000 0.0000 0.0000 -94.0773 17.4794 13.3671 16.9446 -26.7847 -4.0624 -0.0000 -0.0000 21.0091 20.5487 -10.1205 -3.7686 -7.1250 0.0000 -0.0000 -4.5880 19.2060 2.8324 0.0000 0.0000 0.0000 89.2515 -13.3926 7.7168 -14.7012 23.7282 -3.1047 0.0000 0.0000 8.1041 -15.5274 -46.3632 11.3694 7.1250 -0.0000 -0.0000 42.2409 -73.8205 -30.0976
7.5585 16.3668 -1.3447 131.6950 -87.5900 -123.7730 0.0000 0.0000 0.0000 -20.2677 -13.7551 3.2544 0.2184 3.0086 8.3026 -0.9134 19.3756 -17.9384 1.1288 6.7483 18.9717 0.0000 0.0000 0.0000 18.5087 17.0315 -2.1382 -0.5643 -4.8114 13.3716 -0.3631 -9.4892 -18.5167 -0.4721 -4.4068 12.2239 -1.5315 0.3518 -6.5254 0.2631 0.3454 -5.8726 1.1474 0.1480 -2.4160 6.1319 8.5073 2.3448 -10.8535 12.2876 12.7708 -3.8705 5.7552 4.4792 -0.0000 0.0000 0.0000 -93.9038 17.4263 13.6061 16.8986 -26.7239 -4.0416 -0.0000 -0.0000 20.3791 21.2228 -10.3650 -3.9967 -7.1250 0.0000 -0.0000 -4.1148 18.8946 2.5672 -0.0000 0.0000 0.0000 89.3971 -13.2404 7.5109 -14.6631 23.6747 -3.0894 0.0000 0.0000 8.2375 -15.3117 -46.4250 11.2192 7.1250 -0.0000 -0.0000 42.6218 -73.7813 -30.3596
7.5494 16.3670 -1.3652 132.1930 -87.7162 -124.1790 0.0000 0.0000 0.0000 -20.0149 -13.8172 3.2231 0.2126 2.9685 8.1910 -0.9362 19.4690 -17.8196 1.1452 6.7953 19.1103 0.0000 0.0000 0.0000 18.6942 17.0646 -2.2144 -0.5669 -4.8220 13.4016 -0.3704 -9.4836 -18.5936 -0.4865 -4.4727 12.4104 -1.4039 0.5036 -6.6134 0.2214 0.5422 -5.8750 1.0419 0.2409 -2.3737 6.5085 8.4907 2.4884 -11.2287 12.2922 12.4929 -4.0539 5.7741 4.4158 -0.0000 -0.0000 0.0000 -93.6904 17.3702 13.8746 16.8367 -26.6420 -4.0138 -0.0000 -0.0000 20.2870 21.2622 -10.3646 -4.0046 -7.1250 0.0000 -0.0000 -4.0868 18.8920 2.5499 -0.0000 -0.0000 0.0000 89.5814 -13.3017 7.3627 -14.7247 23.7612 -3.1142 0.0000 0.0000 8.1954 -15.5111 -46.6316 11.4065 7.1250 -0.0000 -0.0000 42.9888 -73.9903 -30.8214
7.5380 16.3617 -1.3818 123.4540 -87.9136 -115.6330 0.0000 0.0000 0.0000 -19.9942 -14.0977 3.5797 0.2079 2.9355 8.0991 -0.9918 19.7169 -17.5781 1.0898 6.6345 18.6370 0.0000 0.0000 0.0000 18.8253 16.7212 -2.0031 -0.5679 -4.8264 13.4140 -0.3670 -9.6504 -18.7295 -0.4584 -4.3432 12.0443 -1.4485 0.4446 -6.4697 0.2428 0.4693 -5.8226 1.0848 0.2084 -2.3974 6.5759 8.6036 2.5639 -11.3610 12.4609 12.4696 -4.0987 5.8571 4.4244 -0.0000 -0.0000 0.0000 -93.8123 17.5026 13.5472 16.9462 -26.7868 -4.0631 -0.0000 -0.0000 20.8965 22.1613 -10.2208 -4.1337 -7.1250 0.0000 -0.0000 -3.4455 18.9739 2.1419 -0.0000 -0.0000 0.0000 89.5531 -13.4646 7.6836 -14.8398 23.9225 -3.1607 0.0000 0.0000 8.0093 -16.0723 -47.1687 11.9305 7.1250 -0.0000 -0.0000 43.9646 -74.5451 -32.0608
7.5282 16.3624 -1.4030 121.0780 -87.8029 -113.0270 0.0000 0.0000 0.0000 -20.0229 -14.1819 3.4348 0.2035 2.9044 8.0127 -1.0332 19.8690 -17.3105 1.0325 6.4633 18.1348 0.0000 0.0000 0.0000 18.6661 16.6796 -2.2598 -0.5700 -4.8352 13.4392 -0.3729 -9.6026 -18.7460 -0.4715 -4.4042 12.2166 -1.6904 0.4224 -6.6312 0.2832 0.4450 -5.9286 1.2619 0.2029 -2.4212 6.1566 8.9009 2.1273 -10.8074 12.8405 13.0275 -3.8120 6.0153 4.6438 0.0000 -0.0000 0.0000 -94.0685 17.6649 12.9393 17.0518 -26.9260 -4.1108 -0.0000 -0.0000 21.4821 23.7652 -10.0626 -4.3994 -7.1250 0.0000 -0.0000 -2.3018 19.0114 1.4276 0.0000 -0.0000 0.0000 89.4012 -13.4630 8.0321 -14.8005 23.8674 -3.1448 0.0000 0.0000 8.1010 -16.4447 -47.0905 12.1989 7.1250 -0.0000 -0.0000 43.3776 -74.6365 -31.6738
7.5204 16.3626 -1.4222 110.4730 -87.8804 -102.6160 0.0000 0.0000 0.0000 -20.0567 -14.4745 3.8068 0.1974 2.8608 7.8914 -1.0872 20.0544 -16.9112 0.9189 6.1074 17.0965 0.0000 0.0000 0.0000 18.7415 16.4426 -2.0260 -0.5759 -4.8598 13.5092 -0.3893 -9.6994 -19.0305 -0.5173 -4.6100 12.7995 -1.7866 0.3310 -6.4253 0.2818 0.3340 -5.8076 1.3087 0.1535 -2.4063 6.9836 8.6994 3.5121 -12.2344 12.6194 11.3721 -4.4799 5.9864 4.0275 -0.0000 0.0000 0.0000 -94.1117 17.4355 12.8461 16.9238 -26.7572 -4.0530 -0.0000 -0.0000 21.2153 23.7984 -10.2117 -4.4706 -7.1250 0.0000 -0.0000 -2.2844 18.8468 1.4251 -0.0000 0.0000 0.0000 89.3377 -13.2101 8.1013 -14.7382 23.7801 -3.1196 0.0000 0.0000 8.1915 -16.1681 -46.7878 11.9313 7.1250 -0.0000 -0.0000 42.7794 -74.3376 -30.9508
